<svg xmlns="http://www.w3.org/2000/svg" width="850.39" height="850.39" viewBox="0 0 850.39 850.39"><path fill="#DC363B" d="M424.78.589C190.447.589.482 190.554.482 424.887S190.447 849.185 424.78 849.185 849.077 659.22 849.077 424.887C849.078 190.554 659.113.589 424.78.589zm278.005 317.686c-11.24 9.729-34.131 21.508-68.65 35.322-23.918 9.533-38.666 17.224-44.242 23.076-5.574 5.841-8.277 16.263-8.104 31.271.99 21.921 8.318 51.36 22.006 88.31 13.688 36.934 22.533 64.604 26.541 82.984 1.656 8.002.635 15.938-3.068 23.807-3.699 7.857-9.555 14.082-17.596 18.67-10.541 6.564-23.846 6.854-39.902.885-16.061-5.977-42.666-21.096-79.832-45.355-2.139-1.24-5.014-3.037-8.635-5.418-11.445-7.875-19.645-13.486-24.619-16.84-4.977-3.365-11.771-7.178-20.375-11.447-8.607-4.279-14.279-7.232-17.02-8.855-2.731-1.635-7.56-2.771-14.483-3.426-6.92-.66-11.457-.877-13.599-.633-2.141.223-6.675 2.051-13.59 5.469-6.92 3.406-11.759 6.494-14.527 9.262-2.768 2.756-8.338 7.881-16.714 15.357-8.372 7.467-14.986 13.838-19.849 19.129-4.858 5.277-12.864 13.77-24.02 25.479a6407.081 6407.081 0 0 0-8.423 9.258c-10.437 11.129-18.385 19.137-23.846 24.025-5.462 4.879-10.796 9.383-16.003 13.488-5.203 4.096-10.063 5.877-14.553 5.354a65.458 65.458 0 0 1-13.313-3.043c-4.375-1.504-10.734-4.201-19.06-8.121-16.212-8.762-26.084-16.115-29.613-22.063-3.521-5.959-3.563-15.244-.115-27.852 1.917-7.92 8.024-18.262 18.329-31.031 10.305-12.787 21.383-23.834 33.231-33.174 34.839-27.451 52.71-47.795 53.629-61.029.913-13.248-14.33-24.658-45.751-34.238-20.731-6.363-35.218-12.56-43.455-18.579-8.241-6.031-12.895-14.148-13.958-24.364-2.42-20.795 3.207-36.006 16.884-45.607 13.675-9.618 32.229-11.729 55.684-6.34 12.335 3.081 24.446 4.6 36.332 4.553 11.887-.065 19.903-1.716 24.027-4.966 4.132-3.255 12.937-16.455 26.424-39.594 13.49-23.153 27.66-49.299 42.511-78.464 20.869-41.483 36.889-69.531 48.067-84.153 11.172-14.63 21.615-21.7 31.32-21.19 13.639.305 26.379 6.134 38.219 17.472 11.84 11.321 17.072 22.778 15.705 34.336-1.428 9.269 3.594 30.046 15.07 62.337 10.363 27.92 22.086 43.713 35.16 47.386 13.076 3.664 35.197-2.42 66.377-18.257 21.139-10.845 38.715-14.216 52.715-10.107 14.006 4.093 23.828 15.277 29.479 33.529 4.052 12.518.453 23.651-10.795 33.387z"/></svg>